<mxfile host="app.diagrams.net" agent="Mozilla/5.0 (Windows NT 10.0; Win64; x64) AppleWebKit/537.36 (KHTML, like Gecko) Chrome/128.0.0.0 Safari/537.36 Edg/128.0.0.0" version="24.7.12">
  <diagram name="Page-1" id="9T3vobUqX5Muji9oLLn8">
    <mxGraphModel dx="911" dy="515" grid="1" gridSize="10" guides="1" tooltips="1" connect="1" arrows="1" fold="1" page="1" pageScale="1" pageWidth="850" pageHeight="1100" math="0" shadow="0">
      <root>
        <mxCell id="0" />
        <mxCell id="1" parent="0" />
        <mxCell id="RuSUz5CFWX7f8RPFKXfF-7" style="edgeStyle=orthogonalEdgeStyle;rounded=0;orthogonalLoop=1;jettySize=auto;html=1;" edge="1" parent="1" source="RuSUz5CFWX7f8RPFKXfF-1">
          <mxGeometry relative="1" as="geometry">
            <mxPoint x="270" y="140" as="targetPoint" />
          </mxGeometry>
        </mxCell>
        <mxCell id="RuSUz5CFWX7f8RPFKXfF-1" value="user&amp;nbsp;" style="rounded=0;whiteSpace=wrap;html=1;" vertex="1" parent="1">
          <mxGeometry x="40" y="110" width="120" height="60" as="geometry" />
        </mxCell>
        <mxCell id="RuSUz5CFWX7f8RPFKXfF-4" value="WhatsApp system design like user is able to know the message send received read&amp;nbsp;" style="text;html=1;align=center;verticalAlign=middle;whiteSpace=wrap;rounded=0;" vertex="1" parent="1">
          <mxGeometry x="240" y="10" width="470" height="30" as="geometry" />
        </mxCell>
        <mxCell id="RuSUz5CFWX7f8RPFKXfF-11" style="edgeStyle=orthogonalEdgeStyle;rounded=0;orthogonalLoop=1;jettySize=auto;html=1;" edge="1" parent="1" source="RuSUz5CFWX7f8RPFKXfF-5" target="RuSUz5CFWX7f8RPFKXfF-9">
          <mxGeometry relative="1" as="geometry" />
        </mxCell>
        <mxCell id="RuSUz5CFWX7f8RPFKXfF-5" value="user1&lt;span style=&quot;color: rgba(0, 0, 0, 0); font-family: monospace; font-size: 0px; text-align: start; text-wrap: nowrap;&quot;&gt;%3CmxGraphModel%3E%3Croot%3E%3CmxCell%20id%3D%220%22%2F%3E%3CmxCell%20id%3D%221%22%20parent%3D%220%22%2F%3E%3CmxCell%20id%3D%222%22%20value%3D%22user%26amp%3Bnbsp%3B%22%20style%3D%22rounded%3D0%3BwhiteSpace%3Dwrap%3Bhtml%3D1%3B%22%20vertex%3D%221%22%20parent%3D%221%22%3E%3CmxGeometry%20x%3D%2280%22%20y%3D%22110%22%20width%3D%22120%22%20height%3D%2260%22%20as%3D%22geometry%22%2F%3E%3C%2FmxCell%3E%3C%2Froot%3E%3C%2FmxGraphModel%3E&lt;/span&gt;" style="rounded=0;whiteSpace=wrap;html=1;" vertex="1" parent="1">
          <mxGeometry x="70" y="350" width="100" height="60" as="geometry" />
        </mxCell>
        <mxCell id="RuSUz5CFWX7f8RPFKXfF-12" style="edgeStyle=orthogonalEdgeStyle;rounded=0;orthogonalLoop=1;jettySize=auto;html=1;" edge="1" parent="1" source="RuSUz5CFWX7f8RPFKXfF-6" target="RuSUz5CFWX7f8RPFKXfF-10">
          <mxGeometry relative="1" as="geometry" />
        </mxCell>
        <mxCell id="RuSUz5CFWX7f8RPFKXfF-6" value="user 2" style="rounded=0;whiteSpace=wrap;html=1;" vertex="1" parent="1">
          <mxGeometry x="70" y="480" width="120" height="60" as="geometry" />
        </mxCell>
        <mxCell id="RuSUz5CFWX7f8RPFKXfF-16" value="notification back to user for send&amp;nbsp;" style="edgeStyle=orthogonalEdgeStyle;rounded=0;orthogonalLoop=1;jettySize=auto;html=1;entryX=0;entryY=0.25;entryDx=0;entryDy=0;" edge="1" parent="1" source="RuSUz5CFWX7f8RPFKXfF-8" target="RuSUz5CFWX7f8RPFKXfF-15">
          <mxGeometry relative="1" as="geometry" />
        </mxCell>
        <mxCell id="RuSUz5CFWX7f8RPFKXfF-8" value="gateeway" style="rounded=0;whiteSpace=wrap;html=1;" vertex="1" parent="1">
          <mxGeometry x="270" y="100" width="80" height="60" as="geometry" />
        </mxCell>
        <mxCell id="RuSUz5CFWX7f8RPFKXfF-9" value="gateway" style="rounded=0;whiteSpace=wrap;html=1;" vertex="1" parent="1">
          <mxGeometry x="280" y="320" width="80" height="60" as="geometry" />
        </mxCell>
        <mxCell id="RuSUz5CFWX7f8RPFKXfF-10" value="gateway" style="rounded=0;whiteSpace=wrap;html=1;" vertex="1" parent="1">
          <mxGeometry x="290" y="450" width="80" height="60" as="geometry" />
        </mxCell>
        <mxCell id="RuSUz5CFWX7f8RPFKXfF-13" style="edgeStyle=orthogonalEdgeStyle;rounded=0;orthogonalLoop=1;jettySize=auto;html=1;exitX=0.5;exitY=1;exitDx=0;exitDy=0;" edge="1" parent="1" source="RuSUz5CFWX7f8RPFKXfF-10" target="RuSUz5CFWX7f8RPFKXfF-10">
          <mxGeometry relative="1" as="geometry" />
        </mxCell>
        <mxCell id="RuSUz5CFWX7f8RPFKXfF-14" value="1.send the messgae&lt;div&gt;2.to send the group comm&lt;/div&gt;&lt;div&gt;3.see the media&lt;/div&gt;&lt;div&gt;4.delete the message&lt;/div&gt;&lt;div&gt;&lt;span style=&quot;background-color: initial;&quot;&gt;5.fetch the message.&lt;/span&gt;&lt;br&gt;&lt;/div&gt;" style="text;html=1;align=center;verticalAlign=middle;whiteSpace=wrap;rounded=0;" vertex="1" parent="1">
          <mxGeometry x="10" y="180" width="170" height="90" as="geometry" />
        </mxCell>
        <mxCell id="RuSUz5CFWX7f8RPFKXfF-31" style="edgeStyle=orthogonalEdgeStyle;rounded=0;orthogonalLoop=1;jettySize=auto;html=1;entryX=0.5;entryY=0;entryDx=0;entryDy=0;" edge="1" parent="1" source="RuSUz5CFWX7f8RPFKXfF-15" target="RuSUz5CFWX7f8RPFKXfF-27">
          <mxGeometry relative="1" as="geometry">
            <Array as="points">
              <mxPoint x="740" y="180" />
            </Array>
          </mxGeometry>
        </mxCell>
        <mxCell id="RuSUz5CFWX7f8RPFKXfF-15" value="message handler" style="rounded=0;whiteSpace=wrap;html=1;" vertex="1" parent="1">
          <mxGeometry x="450" y="145" width="120" height="45" as="geometry" />
        </mxCell>
        <mxCell id="RuSUz5CFWX7f8RPFKXfF-21" value="" style="endArrow=classic;startArrow=classic;html=1;rounded=0;entryX=0;entryY=0.5;entryDx=0;entryDy=0;exitX=1;exitY=0.25;exitDx=0;exitDy=0;" edge="1" parent="1" source="RuSUz5CFWX7f8RPFKXfF-10" target="RuSUz5CFWX7f8RPFKXfF-15">
          <mxGeometry width="50" height="50" relative="1" as="geometry">
            <mxPoint x="380" y="470" as="sourcePoint" />
            <mxPoint x="450" y="220" as="targetPoint" />
          </mxGeometry>
        </mxCell>
        <mxCell id="RuSUz5CFWX7f8RPFKXfF-22" value="" style="endArrow=classic;startArrow=classic;html=1;rounded=0;exitX=1;exitY=0.25;exitDx=0;exitDy=0;entryX=0;entryY=0.5;entryDx=0;entryDy=0;" edge="1" parent="1" source="RuSUz5CFWX7f8RPFKXfF-9" target="RuSUz5CFWX7f8RPFKXfF-15">
          <mxGeometry width="50" height="50" relative="1" as="geometry">
            <mxPoint x="400" y="270" as="sourcePoint" />
            <mxPoint x="450" y="220" as="targetPoint" />
          </mxGeometry>
        </mxCell>
        <mxCell id="RuSUz5CFWX7f8RPFKXfF-27" value="storage device for message for time being" style="rounded=0;whiteSpace=wrap;html=1;" vertex="1" parent="1">
          <mxGeometry x="680" y="190" width="120" height="60" as="geometry" />
        </mxCell>
        <mxCell id="RuSUz5CFWX7f8RPFKXfF-28" value="gate way connected suer basically find out the destinatoin" style="rounded=0;whiteSpace=wrap;html=1;" vertex="1" parent="1">
          <mxGeometry x="740" y="100" width="120" height="60" as="geometry" />
        </mxCell>
        <mxCell id="RuSUz5CFWX7f8RPFKXfF-30" value="" style="endArrow=classic;startArrow=classic;html=1;rounded=0;entryX=0;entryY=0.5;entryDx=0;entryDy=0;exitX=1;exitY=0.5;exitDx=0;exitDy=0;" edge="1" parent="1" source="RuSUz5CFWX7f8RPFKXfF-15" target="RuSUz5CFWX7f8RPFKXfF-28">
          <mxGeometry width="50" height="50" relative="1" as="geometry">
            <mxPoint x="370" y="350" as="sourcePoint" />
            <mxPoint x="420" y="300" as="targetPoint" />
          </mxGeometry>
        </mxCell>
        <mxCell id="RuSUz5CFWX7f8RPFKXfF-37" value="get the number of destinations" style="edgeStyle=orthogonalEdgeStyle;rounded=0;orthogonalLoop=1;jettySize=auto;html=1;entryX=0.75;entryY=1;entryDx=0;entryDy=0;" edge="1" parent="1" source="RuSUz5CFWX7f8RPFKXfF-33" target="RuSUz5CFWX7f8RPFKXfF-28">
          <mxGeometry relative="1" as="geometry">
            <mxPoint x="620" y="459.9999999999999" as="targetPoint" />
          </mxGeometry>
        </mxCell>
        <mxCell id="RuSUz5CFWX7f8RPFKXfF-33" value="group service handler" style="rounded=0;whiteSpace=wrap;html=1;" vertex="1" parent="1">
          <mxGeometry x="460" y="290" width="120" height="45" as="geometry" />
        </mxCell>
        <mxCell id="RuSUz5CFWX7f8RPFKXfF-35" value="send the message and get the number" style="endArrow=classic;startArrow=classic;html=1;rounded=0;entryX=0.5;entryY=1;entryDx=0;entryDy=0;exitX=0.5;exitY=0;exitDx=0;exitDy=0;" edge="1" parent="1" source="RuSUz5CFWX7f8RPFKXfF-33" target="RuSUz5CFWX7f8RPFKXfF-15">
          <mxGeometry width="50" height="50" relative="1" as="geometry">
            <mxPoint x="370" y="350" as="sourcePoint" />
            <mxPoint x="420" y="300" as="targetPoint" />
          </mxGeometry>
        </mxCell>
      </root>
    </mxGraphModel>
  </diagram>
</mxfile>
